<svg version="1" xmlns="http://www.w3.org/2000/svg" width="400" height="400" viewBox="0 0 300.000000 300.000000"><path d="M78.5 1.1C41.5 6 11.2 33.6 2.3 70.8.9 76.5.6 87.3.3 143.5c-.3 42.7 0 69.5.6 75.8 2.2 20.3 11.2 39 25.4 53.5 12.1 12.3 24.7 19.5 42.5 24.5 7.5 2 9.7 2.1 74.7 2.5 73.4.4 80.2 0 95-4.9 12.8-4.3 22.5-10.1 32.5-19.6 14-13.2 22.3-27.8 26.7-46.3 1.6-6.8 1.8-14 1.8-79.5s-.2-72.6-1.8-78.9c-8.7-34.2-32.4-58.3-66.6-67.9-7.4-2-9.7-2.1-76.6-2.3-37.9-.1-72.1.2-76 .7zm62.3 67.8c.1 9.1-.1 16.8-.6 17.3-.8.8-26.5-10.1-28.5-12.1-1.7-1.7 24.2-22.5 27.2-21.9 1.4.3 1.6 2.6 1.9 16.7zm27.9-13.3C184 67.2 208 88.6 208 90.7c0 1.5-7.5 12.3-8.5 12.3-.2 0-7-1.5-15.2-3.4-8.1-1.9-16.3-3.7-18.1-4.1-6.1-1.3-6.2-1.7-6.2-22.9 0-10.6.3-19.6.7-19.9 1.3-1.4 3.2-.6 8 2.9zM109 82.1c2.7 1.1 5.1 2.7 5.4 3.4.4 1.2-10.4 35.8-12.5 39.7-.9 1.7-2.1 1.8-12.2 1.6l-11.2-.3-.3-3.9c-.4-5.2 2.9-15.7 7.5-23.6 3.8-6.4 15.3-19 17.3-19 .6 0 3.3.9 6 2.1zm23.7 11.4c3.2 1.4 6.4 3.3 7.1 4.2 1.3 1.8 1.8 24.6.6 27.7-.5 1.4-2.7 1.6-13.9 1.6-9.7 0-13.4-.3-13.7-1.3-.3-.6 2-8.7 5-18 6.1-18.9 5.5-18.3 14.9-14.2zm88.3 17.9c1.2 3.8 2 8.2 1.8 10.8l-.3 4.3-11.9.3c-6.6.1-12.3-.1-12.8-.6-.9-.9 10.2-19.1 14.6-24l2.1-2.3 2.1 2.5c1.2 1.3 3.2 5.4 4.4 9zm-40.2-4.3c10.3 2.4 13.2 3.5 13.2 4.8 0 .9-2.3 4.6-5 8.3l-5 6.8h-10.8c-7.1 0-11.2-.4-12-1.2-1.3-1.3-1.7-18.3-.6-21.3.8-1.9.6-2 20.2 2.6zm-40.4 42.5c.3.9.6 5.3.6 9.9 0 8.8-1.1 11.2-4.6 9.8-2.5-.9-30.6-17.1-31.7-18.2-2.5-2.5 1-3.1 17.8-3.1 14.8 0 17.4.2 17.9 1.6zm44.6-.1c0 1.6-19.4 36-21.7 38.5-1.2 1.3-1.5 1.3-2.3 0-1.5-2.3-1.3-37.3.2-38.8.8-.8 5-1.2 12.5-1.2 9.3 0 11.3.3 11.3 1.5zm37.8 8c.1 4.9-.1 9.5-.5 10.2-1.1 1.6-30.1 18.3-31.8 18.3-2.2 0-8.5-6-8.5-8 0-1.9 13-25.2 15.8-28.3 1.4-1.5 3.1-1.7 13.1-1.5l11.6.3.3 9zm-132.9-3.8c10.8 5.9 14.1 8.3 14.1 10.3 0 .9-5.2 6.7-11.5 12.9-14.8 14.7-14.5 14.9-14.5-8.3 0-16 .5-19.6 2.8-19.6.3 0 4.4 2.1 9.1 4.7zm37.1 21.8c14.8 8.3 14.1 6.5 13.8 33.4-.3 19.3-.5 22.6-1.8 22.6-1.4 0-30-47.3-31.3-51.7-.7-2.5 4.8-9.8 7.4-9.8 1.2 0 6.5 2.5 11.9 5.5zm94.8 6.7c1.8 1.8 1.7 35.8-.1 35.8-.7 0-6.1-4.9-12.1-10.9-8.4-8.4-10.7-11.3-10.2-12.8s18.6-13.2 20.7-13.3c.3 0 1 .5 1.7 1.2zM110.2 204c13.7 23.4 16.3 28.4 15.5 30.3-.6 1.5-2.8 1.7-19.7 1.7-26.9 0-28-.8-28-19.6v-10.8l9.4-9.4c6.4-6.4 10-9.3 11.2-9 1.2.2 5.5 6.4 11.6 16.8zm88.5 6.3c11.2 11.1 20.3 21 20.3 22s-1.2 2.2-2.6 2.7c-3.9 1.5-53.7 1.3-55.2-.2-1.7-1.7-1.6-19.6.2-22.8 2.5-4.6 9.8-17.5 11.2-19.8 2.9-4.5 5-3 26.1 18.1z"/></svg>