<svg version="1" xmlns="http://www.w3.org/2000/svg" width="1061.333" height="1061.333" viewBox="0 0 796.000000 796.000000"><path d="M341.4 35.6c-10.9 6.9-24.8 16.5-25.2 17.6-.2.4-.8.8-1.3.8-.8 0-18.6 13.6-26.3 20-6.4 5.4-17.3 14.7-18.6 16-.9.8-5.6 5.1-10.5 9.5-13.9 12.6-16.5 15.2-16.5 16.7 0 1.2 5.1 5.8 6.4 5.8.2 0 3.3 1.3 6.8 2.9 3.5 1.6 9.9 4.4 14.3 6.4 9.4 4.1 16.8 7.5 28.3 12.8 4.6 2.2 8.5 3.9 8.7 3.9.2 0 3.9 1.6 8.2 3.6 4.3 2 10.6 4.9 14.1 6.5 3.4 1.6 9.2 4.3 13 6.1 7.4 3.5 10.4 4.2 13.8 3.4 2.5-.7 3.7-5.6 3.5-14.3-.2-8.2 0-12.6.5-13.5.3-.4 0-.8-.6-.8s-.9-.4-.5-.9c.3-.6.5-3.8.5-7.3 0-11.8.1-14.2.6-15 .3-.4 0-.8-.6-.8s-.8-.4-.5-1c.5-.8.6-5.5.5-16-.1-2.4-.1-46.1 0-50 .1-9.3-.1-11.7-1.1-14.2-1-2.4-3.4-3.8-7-3.8-.8 0-5.5 2.5-10.5 5.6zM442.8 32c-.9.5-1.9 2.4-2.3 4.1-.8 3.8-.9 148.1-.1 152.9 1.5 8.5 5.7 11.2 21.8 14.4 1.2.2 9.3 2.1 17.8 4 8.5 2 16.8 3.9 18.4 4.2 1.6.3 3.2.7 3.6.9.4.2 2.2.7 4.1 1 3 .5 10.9 2.3 18.9 4.2 1.4.3 3.2.7 4 .9 2.9.6 8.5 1.7 9.5 2 1.9.5 32 7.5 34.5 8 1.4.3 4.1.9 6 1.5 5.4 1.5 13.6 2.2 17.2 1.5 4.6-.8 7.5-3.7 14.3-14.1 3.3-5 6.3-9.5 6.7-10 .5-.6 2.2-2.8 3.9-5 1.6-2.2 3.7-4.9 4.6-5.9 3.1-3.8 5.1-9.7 4.3-12.7-2-6.9-7-12-45.9-46.4-2.5-2.2-5.1-4.5-5.7-5-.6-.6-3.7-3.3-6.9-6-3.2-2.8-6.8-5.9-8.1-7-1.2-1.1-4.3-3.8-7-6s-5.5-4.7-6.4-5.5c-.9-.8-4-3.5-7-6s-6.1-5.1-6.8-5.8c-.8-.7-6.2-5.2-12-10-5.9-4.8-11.4-9.4-12.2-10.2-.9-.8-3.1-2.6-4.9-4-1.9-1.4-7.3-5.7-12-9.5-4.8-3.9-10.4-8.4-12.6-10-7.2-5.6-10-8-10.3-8.8-.2-.4-.8-.7-1.4-.7-.5 0-2.8-1.5-5.1-3.4-8.4-6.8-18.6-10.2-22.9-7.6zM209.9 144.7c-3.8.6-18.4 12-29.7 23.2-12.9 12.9-25.8 29.4-37 47.4-3.8 6.1-18.5 34.8-18.2 35.5.1.1-1.2 3.9-3 8.4-4.1 10.8-8.7 27-9.5 33.3-.2 1.6-.8 4.9-1.3 7.3-1.8 7.7-1.2 19.6 1.2 23.9 3.4 6 4.6 6.2 30.7 6.2h25.4c9.2.1 21.6-.1 24.3-.5 5.2-.6 10.2-3.4 12.3-6.8 1.1-1.7 8-21.8 15.5-44.6s15.2-46.2 17.1-52c1.9-5.8 3.6-11.3 3.8-12.2.2-.9.8-2.6 1.4-3.7.6-1.1 1.1-2.9 1.1-4 0-1.2.4-2.1.8-2.1s.8-.8.9-1.8c.1-.9.9-3.7 1.8-6.2s1.8-5.2 1.9-6c.2-.8.6-2.2.9-3 7.3-18.4 6.2-24.7-5.5-30.3-13.2-6.3-23.3-10.8-25.4-11.2-4.1-.9-7.2-1.2-9.5-.8zM293.9 186.3c-.9.7-2.1 2.2-2.8 3.4-1 1.9-4.9 13.5-5.7 16.8-.1.5-2.2 7.1-4.7 14.5-9.9 30.3-25.1 76.5-25.2 77-.1.3-.5 1.8-1 3.5-.4 1.6-1.2 3.6-1.8 4.2-.5.7-.6 1.3-.2 1.3.4 0 .3.6-.3 1.2-1.6 2.1-3.5 12.3-2.8 15.2.3 1.4 1.8 3.3 3.3 4.3 3 2 8.2 2.3 37.6 2.2h22c1.2 0 12.1.1 16.2.1 1.1 0 5.9-.1 10.6-.1 17.8 0 21-2.3 20.9-15.3 0-11.4.1-14 .6-14.8.3-.4 0-.8-.6-.8s-.9-.4-.5-.9c.3-.6.5-3.8.5-7.3 0-11.8.1-14.2.6-15 .3-.4 0-.8-.6-.8s-.8-.4-.5-1c.5-.8.7-8.5.4-16v-7.5c.1-3.3.1-7.8.2-9.9 0-2.2.2-4.3.5-4.8.3-.4 0-.8-.6-.8s-.8-.5-.5-1c1.5-2.5.4-15.5-1.7-19.4-2.2-4.1-7.8-7.4-28.3-16.6-2.7-1.3-7.9-3.6-11.5-5.3-16.7-7.6-21-8.8-24.1-6.4zM652 225.5c-1.4.7-3.2 2.3-4 3.5-.8 1.3-2 2.8-2.5 3.4-.6.6-5 7.2-9.8 14.6-4.8 7.4-9.2 14-9.7 14.7-.6.7-1 1.4-1 1.7 0 .3-4.7 7.6-10.5 16.3-12 18.2-10.7 16.2-18.6 27.7-7.8 11.4-9 14.1-7.7 17.9.6 1.5 2 3.2 3.2 3.7 1.8.6 19.4 1.4 26.6 1.1h14c6.9.1 13.1.1 13.8 0 2.1-.2 4.4-.2 17.2-.1 19.7.1 22-.6 25.1-7.3 1.5-3.5 1.8-6 1.4-15.2-.4-11.8-.5-12.4-2.9-23-2.4-10.1-5-18.7-6.7-21.7-.5-1-.9-2.3-.9-3 0-2.5-14-29.6-16.9-32.7-3.2-3.4-6.1-3.9-10.1-1.6zM445.5 235.9c-2.7 1.1-4.5 3.3-5.1 6.2-.7 3.7-.7 72.8.1 77.9.8 5.4 3.5 8.6 7.8 9.4 1.8.3 11.1.5 20.7.5h37.5c28.4 0 26.2 1.3 47.9-28.4 5.2-7.2 9.9-13.5 10.3-14 4.1-5.1 10-16.3 9.7-18.3-.1-.6-.2-1.8-.3-2.6-.1-1.5-7.7-5.4-11.9-6.1-1.5-.2-4.4-.8-6.4-1.3-2.1-.6-3.8-.8-3.8-.6 0 .3-.8 0-1.7-.5-1-.5-3.1-1.1-4.8-1.4-1.6-.3-7.3-1.5-12.5-2.7-5.2-1.2-13.3-3.1-18-4.1-8.4-1.9-12.6-2.9-14.5-3.3-3.1-.8-6.7-1.7-12.5-3-5.4-1.3-23.3-5.5-30.5-7.3-4.4-1-10.1-1.2-12-.4zM232.7 414.2c-.6.4-1.5.4-1.9.1-.5-.2-3.2.1-6 .8-10.9 2.6-11.9 9.1-2.4 14.7 13.3 7.8 37.7 21.2 38.6 21.2.6 0 1 .4 1 1 0 .5.5 1 1.1 1 .6 0 3 1.3 5.4 3 2.4 1.6 4.6 3 5 3 .5 0 50.8 29 55.5 32 .8.6 4.5 2.5 8.1 4.4 10.4 5.5 17.6 6 20.1 1.3 1.9-3.5 3.6-12.3 2.8-13.8-.5-.7-.5-2 0-2.9.5-.9.5-2.2.1-2.8-.4-.7-.5-3.3-.1-5.7.4-2.5.3-4.5-.2-4.5s-.6-.4-.3-1c.5-.8.6-5 .5-16 0-.8 0-6 .1-11.5.2-16.7-1.1-21-7.1-23.3-2.9-1.1-10.4-1.3-73.8-1.5-25-.1-45.9.1-46.5.5zM496.5 413.7c-1.6.2-12.9.4-25 .5-19.7.3-22.3.5-25.2 2.2-3.3 2-5.3 5.5-6 10.4-.7 5-.5 134.7.2 140.2.8 6.4 1.8 8.5 4.6 10 1.7 1 2.5.6 5.2-2.3 3.2-3.4 17.7-27.8 17.7-29.7 0-.5.5-1 1-1 .6 0 1-.5 1-1 0-.6 3.2-6.5 7-13.1 3.9-6.6 7-12.4 7-12.9 0-.6.5-1 1-1 .6 0 1-.4 1-.9s2.7-5.5 6-11.1 6-10.3 6-10.5c0-.1 3.6-6.4 8-14s8-14.1 8-14.6.5-.9 1-.9c.6 0 1-.5 1-1 0-1 10.9-20.2 12.7-22.5.5-.6 2.6-4.5 4.6-8.7 5.9-11.8 5.2-16.2-2.6-17.3-4.3-.6-28.8-1.2-34.2-.8zM618.2 413.7c-.4.1-4.7.4-9.7.6-4.9.3-10 .7-11.3 1-2.9.8-7.4 4-10.5 7.6-2.1 2.6-18.6 30.2-22.6 37.9-.8 1.5-1.7 2.9-2 3.2-.3.3-1.5 2.3-2.7 4.5-2.3 4.4-12.6 22.3-15.5 27-1 1.6-2.3 3.9-2.9 5-.6 1.1-2.6 4.7-4.5 8-3.8 6.4-8.9 16.7-10.1 20-1 3-.8 7.7.5 11 1.7 4.2 17.6 19.4 23.7 22.7 9.3 5 17.3 3.5 30.7-5.6 2.1-1.4 4-2.6 4.2-2.6.3 0 5-2.7 10.5-6s10.5-6 11-6c.6 0 1-.5 1-1 0-.6.5-1 1.1-1 .6 0 7.1-3.6 14.4-8 7.3-4.4 13.8-8 14.4-8 .6 0 1.1-.4 1.1-.9s1.5-1.4 3.3-2.2c1.7-.7 3.4-1.5 3.7-1.8.5-.6 2-1.5 9.9-5.9 2.5-1.3 5.7-3.2 7.1-4.1 1.4-.9 4.4-2.6 6.7-3.6 2.4-1.1 4.3-2.3 4.3-2.8 0-.4.7-.7 1.5-.7s1.5-.5 1.5-1c0-.6.6-1 1.3-1 1.5 0 8-6.5 9.5-9.5.5-1.1 1.2-3.7 1.6-5.7.9-4.7 1-52.3.2-53.7-.4-.5-.2-1.2.4-1.6.7-.4.7-1.2 0-2.4-.5-1-.7-2.1-.4-2.3.3-.3-.3-2.2-1.2-4.1-3.1-6.4-4.6-6.7-38.8-7-16.9-.1-30.9-.1-31.4 0zM117.4 421.1c-2.2 1.1-5.1 5.4-6.2 9.2-1.2 4.2-1.4 124.8-.2 130.4 2 9.3 7.6 12.5 15.5 8.7 4-1.9 80.4-77.7 84-83.3 4-6.4 3.2-11.7-2.4-17.2-3.3-3.2-20.7-14.7-28.6-18.9-13.2-7.1-25.1-13.4-27.2-14.4-1.3-.6-2.3-1.4-2.3-1.9 0-.4-.6-.7-1.4-.7-.7 0-2.5-.9-4-2.1-1.4-1.1-2.6-1.7-2.6-1.3 0 .4-.8 0-1.7-.8-6.8-5.8-18.7-9.8-22.9-7.7zM254 503.1c-3.7 2.3-5 3.6-14.5 14.5-9.7 11-10.7 12.8-10.4 18.2.1 2.6.5 5.1.9 5.7.3.5 1.2 2.9 2 5.2.7 2.4 1.7 4.3 2.2 4.3.4 0 .8.5.8 1.1 0 1.3 8.2 15.3 9.2 15.7.5.2.8.8.8 1.3 0 .8 6 11.4 10.1 17.9 1.3 2 13.6 23.4 16.7 29 1.4 2.5 3.3 5.7 4.3 7.2 1.1 1.4 1.9 2.9 1.9 3.2 0 .4 2 3.9 4.4 7.9 3.7 6.2 46.5 80.1 51.6 89.3 1.1 1.8 3 5.1 4.4 7.3 1.5 2.2 2.6 4.3 2.6 4.5 0 1.1 6.7 11.3 9 13.7 2.1 2.1 3 2.4 5.2 1.7 1.4-.5 2.9-1.9 3.3-3.1.8-2.5 1.5-10.8 1.5-18.2 0-10.4.1-12.9.6-13.7.3-.4 0-.8-.6-.8s-.9-.4-.5-.9c.3-.6.5-3.8.5-7.3 0-11.8.1-14.2.6-15 .3-.4 0-.8-.6-.8s-.8-.4-.5-1c.5-.8.6-5.5.5-16-.1-4.8-.1-83.1 0-90.3.2-14.9-2.4-23.5-9.3-30.8-5.4-5.7-15.4-11.9-42.7-26.5-1.9-1.1-3.7-2.1-4-2.4-.5-.5-2.5-1.6-12.5-6.9-2.7-1.4-5.2-2.8-5.5-3.1-.5-.5-4.1-2.6-10-5.7-1.9-1-3.7-2-4-2.4-1.1-1.2-8.3-4.1-11.3-4.5-2.2-.3-4.3.2-6.7 1.7zM668.8 551.8c-4 2.1-9.7 5.3-12.6 7-2.9 1.8-5.7 3.2-6.2 3.2-.6 0-1 .4-1 .9s-1.2 1.4-2.7 2c-1.6.6-4.6 2.2-6.8 3.6s-4.7 2.8-5.5 3.1c-.8.4-3 1.8-4.7 3.1-1.8 1.3-3.3 2.2-3.3 1.9 0-.3-2.5 1-5.5 2.9s-5.7 3.5-6 3.5c-.4 0-3.7 2-7.5 4.4-6.7 4.4-9.8 7.7-10.5 11.3-.2 1-.4 2-.5 2.3-.8 2.2.6 8 2.5 10.5 3.7 5 78.7 79.6 81.8 81.5 4.9 3 8.8.3 9.4-6.5.1-1.7.3-30.7.3-64.6.1-67.5.1-67.6-5.8-71.5-4.4-2.9-7.6-2.6-15.4 1.4zM187.7 571.5c-2.2.7-5 2.4-6.4 3.7-8.3 7.6-64.3 64-66.5 66.9-4.4 5.9-5 12-4.6 50.9.2 19.5.7 36.4 1 37.5 5.3 17.7 17.3 29.4 35.3 34 5 1.3 16.3 1.5 75.6 1.5 38.3 0 71-.3 72.8-.6 1.7-.4 4.2-1.7 5.5-3.1 2.1-2 2.4-3.2 2.2-7.2-.5-6.1-1.5-8.3-15.8-32.9C280.3 711 275 701.5 275 701c0-.6-.4-1-1-1-.5 0-1-.6-1-1.4 0-.7-.7-1.9-1.5-2.6-.8-.7-1.5-2.1-1.5-3.1 0-1.1-.4-1.9-.8-1.9-.5 0-1.6-1.5-2.5-3.3-.9-1.7-2.9-5.3-4.5-7.8-8.5-14.4-18.8-32.2-22-37.9-1.3-2.5-3-5.2-3.6-6-.7-.8-1.8-2.9-2.6-4.5-.8-1.7-3.5-6.4-6-10.5s-5.2-8.9-6-10.5c-.8-1.7-1.9-3.5-2.3-4-1.2-1.5-15.5-25.7-16.6-28-1.3-3-6.2-7.2-9.1-7.8-1.4-.3-4.2 0-6.3.8zM498.2 582.7c-3 .6-9.1 6.7-11.8 11.8-2.1 4-5.8 10.7-10.6 19.5-1.4 2.5-4.6 8.3-7.1 13-2.5 4.7-5.9 10.9-7.6 13.8-1.7 2.9-3.1 5.5-3.1 5.7 0 .2-2.1 3.4-4.6 7.1-6.6 9.6-10.9 18.1-12.4 24.1-1.6 7-1.7 72.1-.1 78.1 1.4 5.1 4.2 7.9 9.3 9.3 4.2 1.1 197.9.8 201.3-.3 1.1-.4 4.4-1.4 7.3-2.2 7.6-2.1 12.5-4.9 14-8 1.2-2.4 1.2-3.4-.3-7.4s-12.9-15.8-79.4-82.3c-51.6-51.6-79-78.3-81.8-79.8-4.5-2.2-9.3-3.1-13.1-2.4z"/></svg>